<mxfile host="app.diagrams.net" agent="Mozilla/5.0 (X11; Linux x86_64) AppleWebKit/537.36 (KHTML, like Gecko) Chrome/125.0.0.0 Safari/537.36" version="26.0.16">
  <diagram name="Page-1" id="0ihyMSV7bSP2zGypiDnQ">
    <mxGraphModel dx="1990" dy="635" grid="1" gridSize="10" guides="1" tooltips="1" connect="1" arrows="1" fold="1" page="1" pageScale="1" pageWidth="850" pageHeight="1100" math="0" shadow="0">
      <root>
        <mxCell id="0" />
        <mxCell id="1" parent="0" />
        <mxCell id="iq1faBZ0BVjFbw1H_K8d-19" style="edgeStyle=orthogonalEdgeStyle;rounded=0;orthogonalLoop=1;jettySize=auto;html=1;exitX=1;exitY=0.5;exitDx=0;exitDy=0;entryX=0;entryY=0.5;entryDx=0;entryDy=0;" edge="1" parent="1" source="iq1faBZ0BVjFbw1H_K8d-2" target="iq1faBZ0BVjFbw1H_K8d-3">
          <mxGeometry relative="1" as="geometry" />
        </mxCell>
        <mxCell id="iq1faBZ0BVjFbw1H_K8d-24" value="Confirm Geofence" style="edgeLabel;html=1;align=center;verticalAlign=middle;resizable=0;points=[];" vertex="1" connectable="0" parent="iq1faBZ0BVjFbw1H_K8d-19">
          <mxGeometry x="-0.1515" y="1" relative="1" as="geometry">
            <mxPoint x="3" y="-9" as="offset" />
          </mxGeometry>
        </mxCell>
        <mxCell id="iq1faBZ0BVjFbw1H_K8d-2" value="Geofencing" style="ellipse;whiteSpace=wrap;html=1;" vertex="1" parent="1">
          <mxGeometry x="50" y="360" width="120" height="40" as="geometry" />
        </mxCell>
        <mxCell id="iq1faBZ0BVjFbw1H_K8d-21" style="edgeStyle=orthogonalEdgeStyle;rounded=0;orthogonalLoop=1;jettySize=auto;html=1;exitX=0.5;exitY=1;exitDx=0;exitDy=0;entryX=0.5;entryY=1;entryDx=0;entryDy=0;" edge="1" parent="1" source="iq1faBZ0BVjFbw1H_K8d-3" target="iq1faBZ0BVjFbw1H_K8d-4">
          <mxGeometry relative="1" as="geometry" />
        </mxCell>
        <mxCell id="iq1faBZ0BVjFbw1H_K8d-3" value="Command Sampling" style="ellipse;whiteSpace=wrap;html=1;" vertex="1" parent="1">
          <mxGeometry x="280" y="360" width="120" height="40" as="geometry" />
        </mxCell>
        <mxCell id="iq1faBZ0BVjFbw1H_K8d-22" style="edgeStyle=orthogonalEdgeStyle;rounded=0;orthogonalLoop=1;jettySize=auto;html=1;exitX=0.5;exitY=0;exitDx=0;exitDy=0;entryX=0.5;entryY=0;entryDx=0;entryDy=0;" edge="1" parent="1" source="iq1faBZ0BVjFbw1H_K8d-4" target="iq1faBZ0BVjFbw1H_K8d-3">
          <mxGeometry relative="1" as="geometry" />
        </mxCell>
        <mxCell id="iq1faBZ0BVjFbw1H_K8d-23" style="edgeStyle=orthogonalEdgeStyle;rounded=0;orthogonalLoop=1;jettySize=auto;html=1;exitX=1;exitY=0;exitDx=0;exitDy=0;entryX=1;entryY=1;entryDx=0;entryDy=0;" edge="1" parent="1" source="iq1faBZ0BVjFbw1H_K8d-4" target="iq1faBZ0BVjFbw1H_K8d-4">
          <mxGeometry relative="1" as="geometry">
            <mxPoint x="650" y="400" as="targetPoint" />
            <Array as="points">
              <mxPoint x="610" y="366" />
              <mxPoint x="610" y="394" />
            </Array>
          </mxGeometry>
        </mxCell>
        <mxCell id="iq1faBZ0BVjFbw1H_K8d-4" value="Drive Step Execution" style="ellipse;whiteSpace=wrap;html=1;" vertex="1" parent="1">
          <mxGeometry x="470" y="360" width="120" height="40" as="geometry" />
        </mxCell>
        <mxCell id="iq1faBZ0BVjFbw1H_K8d-25" value="Command to execute" style="edgeLabel;html=1;align=center;verticalAlign=middle;resizable=0;points=[];" vertex="1" connectable="0" parent="1">
          <mxGeometry x="439.9966666666668" y="410" as="geometry">
            <mxPoint x="-5" y="1" as="offset" />
          </mxGeometry>
        </mxCell>
        <mxCell id="iq1faBZ0BVjFbw1H_K8d-26" value="Success" style="edgeLabel;html=1;align=center;verticalAlign=middle;resizable=0;points=[];" vertex="1" connectable="0" parent="1">
          <mxGeometry x="439.9966666666668" y="330" as="geometry">
            <mxPoint x="-5" y="1" as="offset" />
          </mxGeometry>
        </mxCell>
        <mxCell id="iq1faBZ0BVjFbw1H_K8d-27" value="Fail" style="edgeLabel;html=1;align=center;verticalAlign=middle;resizable=0;points=[];" vertex="1" connectable="0" parent="1">
          <mxGeometry x="627.9966666666668" y="384" as="geometry">
            <mxPoint x="-5" y="-2" as="offset" />
          </mxGeometry>
        </mxCell>
        <mxCell id="iq1faBZ0BVjFbw1H_K8d-28" style="edgeStyle=orthogonalEdgeStyle;rounded=0;orthogonalLoop=1;jettySize=auto;html=1;exitX=0;exitY=0;exitDx=0;exitDy=0;entryX=0;entryY=1;entryDx=0;entryDy=0;" edge="1" parent="1" source="iq1faBZ0BVjFbw1H_K8d-2" target="iq1faBZ0BVjFbw1H_K8d-2">
          <mxGeometry relative="1" as="geometry">
            <Array as="points">
              <mxPoint x="30" y="366" />
              <mxPoint x="30" y="394" />
            </Array>
          </mxGeometry>
        </mxCell>
        <mxCell id="iq1faBZ0BVjFbw1H_K8d-29" value="Restart Geofence" style="edgeLabel;html=1;align=center;verticalAlign=middle;resizable=0;points=[];" vertex="1" connectable="0" parent="1">
          <mxGeometry x="-20.003333333333245" y="380" as="geometry">
            <mxPoint x="-1" as="offset" />
          </mxGeometry>
        </mxCell>
      </root>
    </mxGraphModel>
  </diagram>
</mxfile>
